<?xml version="1.0" encoding="utf-8"?>
<!-- Generator: Adobe Illustrator 23.0.5, SVG Export Plug-In . SVG Version: 6.00 Build 0)  -->
<svg version="1.1" id="Layer_1" xmlns="http://www.w3.org/2000/svg" xmlns:xlink="http://www.w3.org/1999/xlink" x="0px"
	y="0px" viewBox="0 0 459 277" style="enable-background:new 0 0 459 277;" xml:space="preserve">
	<style type="text/css">
		.st0 {
			fill: #ffffff;
		}

		.st1 {
			fill: #ffffff;
		}
	</style>
	<g>
		<g>
			<g>
				<path class="st0" d="M108.5,47.7c28.4,0,56.8-0.1,85.1,0c7.3-0.1,14.4,1.4,21.5,3.1c13,0.8,26.2,0.3,39.1,2.1
				c8.4,1.4,16.1,5.7,22.5,11.2c18.8,14.1,38,27.6,56.8,41.6c21.6-10.3,42.9-21,64.4-31.4c-23.8,36-47.5,72.1-71,108.3
				c-9.7-22.3-18.8-44.9-29-66.9c0.7,21-3.1,43.3-16.6,60c-9.3,12.6-24.9,20-40.5,19.4c-23.3-1-46.5-1.6-69.8-2.5
				c-31.1-0.3-62.1,0-93.2-0.2c7.3-34.4,14.7-68.8,21.9-103.3c10.1-0.1,20.3-0.1,30.4,0c-1.2,5.9-2.4,11.9-3.6,17.8
				c14.3,0,28.6,0,42.9,0c5.1-0.1,11.8-0.7,14-6.2c2.9-6.9,4.6-14.4,4.6-21.9c-0.3-5-6.2-5.3-10-5.4c-25-0.3-50,0-75-0.1
				C104.8,64.8,106.5,56.2,108.5,47.7 M220.3,74.7c-2.2,10-4,20.1-6.5,30.1c-1.7,6.8-6.6,12.4-13.1,15c5.8,2.7,7.8,9.6,6.6,15.5
				c-2.3,11.7-4.6,23.4-7.5,35c14.2,0.7,28.4,1,42.5,1.5c9.5,0.2,19-4.1,24.9-11.6c9-11.2,12.2-26,12-40.1
				c-0.4-14.9-6.5-30.4-18.7-39.4C248.6,72.5,233.6,76.1,220.3,74.7 M121,132.7c-2.6,11.2-4.7,22.5-7.2,33.7
				c14.5,0.5,29-0.1,43.5-0.1c4.9-0.1,11.3-0.6,13.4-5.8c2.8-7,4.7-14.7,4.5-22.3c-0.5-4.2-5.3-5.4-8.8-5.4
				C151.3,132.6,136.2,132.8,121,132.7z" />
			</g>
		</g>
		<g>
			<g>
				<path class="st1" d="M90.9,206.8c-0.4,1.9-1.4,3.3-3,4.3c1.6,1.2,2.3,2.8,2,5c-0.3,1.8-1.2,3.3-2.7,4.4c-1.5,1.1-3.5,1.7-6,1.7
				H72l3.8-21.8h8.4c2.4,0,4.2,0.6,5.4,1.8C90.8,203.4,91.2,204.9,90.9,206.8z M83.8,215.3c0.2-0.9-0.2-1.4-1.1-1.5l-3,0l-0.6,3.1
				h2.6c0.5,0,1-0.1,1.3-0.4C83.5,216.1,83.7,215.7,83.8,215.3z M83.2,205.7h-2.1l-0.5,2.9l2.4,0c0.9-0.1,1.4-0.6,1.6-1.4
				c0.1-0.5,0-0.9-0.3-1.1C84,205.8,83.6,205.7,83.2,205.7z" />
			</g>
			<g>
				<path class="st1"
					d="M110.4,206h-7.9l-0.4,2.4h7.2l-1,5.6H101l-0.4,2.4h8.1l-1,5.7H93.4l3.8-21.8h14.2L110.4,206z" />
			</g>
			<g>
				<path class="st1" d="M125.6,200.4c2.9,0,5.2,1.1,6.9,3.3c1.7,2.2,2.3,4.8,1.8,7.9c-0.6,3.1-2,5.7-4.2,7.7c-2.2,2-5,2.9-8.3,2.9
				h-9.1l3.9-21.8H125.6z M128,211.3c0.2-1.4,0-2.6-0.6-3.5c-0.7-0.9-1.6-1.4-2.9-1.4H122l-1.7,9.7h2.5c1.3,0,2.4-0.5,3.4-1.4
				C127.1,213.9,127.7,212.7,128,211.3z" />
			</g>
			<g>
				<path class="st1"
					d="M154.2,206h-7.9l-0.4,2.4h7.2l-1,5.6h-7.2l-0.4,2.4h8.1l-1,5.7h-14.3l3.8-21.8h14.2L154.2,206z" />
			</g>
			<g>
				<path class="st1" d="M164.6,222.7c-2.4,0-4.3-0.5-5.7-1.4c-1.4-1-2.4-2.3-2.9-4l5.4-2.8c0.7,1.7,1.9,2.5,3.8,2.5
				c1.5,0,2.3-0.4,2.4-1.2c0-0.2,0-0.5-0.1-0.7c-0.1-0.2-0.3-0.4-0.7-0.5c-0.3-0.1-0.6-0.3-0.9-0.4c-0.3-0.1-0.6-0.2-1.1-0.4
				c-0.5-0.1-0.9-0.3-1.1-0.3c-3.9-1.4-5.5-3.7-4.9-7.2c0.4-2,1.3-3.5,2.9-4.7s3.5-1.8,5.7-1.8c1.9,0,3.5,0.4,4.8,1.3
				c1.3,0.9,2.3,2.1,3,3.8l-5.3,2.8c-0.5-1.4-1.5-2.1-3-2.1c-1.1,0-1.7,0.4-1.9,1.1c-0.1,0.5,0.1,0.8,0.6,1.1
				c0.5,0.3,1.4,0.7,2.8,1.2c0.9,0.3,1.6,0.6,2.2,0.9c0.6,0.3,1.2,0.7,1.8,1.3c0.6,0.5,1,1.2,1.2,2.1c0.2,0.9,0.2,1.9,0,3
				c-0.4,2.1-1.4,3.7-2.9,4.8C169.2,222.1,167.2,222.7,164.6,222.7z" />
			</g>
			<g>
				<path class="st1" d="M181.1,200.4h6.2l-3.9,21.8h-6.2L181.1,200.4z" />
			</g>
			<g>
				<path class="st1" d="M213.1,209.3l-0.4,2.6c-0.5,3.2-1.9,5.8-4.1,7.8c-2.2,2-5,3-8.3,3c-3.4,0-6.1-1.1-7.9-3.4
				c-1.9-2.2-2.5-5-2-8.4c0.5-3.3,2-5.9,4.4-8s5.2-3.1,8.5-3.1c2.1,0,3.9,0.5,5.5,1.4c1.5,0.9,2.8,2.1,3.6,3.7l-5.7,3.1
				c-0.9-1.4-2.2-2-4.1-2c-1.5,0-2.8,0.5-4,1.5c-1.1,1-1.8,2.3-2.1,3.8c-0.3,1.5,0,2.8,0.8,3.9c0.8,1.1,1.9,1.7,3.4,1.7
				c2.2,0,3.8-0.8,4.8-2.3h-4.4l0.9-5.3H213.1z" />
			</g>
			<g>
				<path class="st1"
					d="M215.7,222.2l3.9-21.8h5l5,10.5l1.8-10.5h6.2l-3.8,21.8h-5l-5-10.5l-1.9,10.5H215.7z" />
			</g>
			<g>
				<path class="st1"
					d="M256.4,206h-7.9l-0.4,2.4h7.2l-1,5.6H247l-0.4,2.4h8.1l-1,5.7h-14.3l3.8-21.8h14.2L256.4,206z" />
			</g>
			<g>
				<path class="st1" d="M278.2,208.3c-0.5,2.7-1.9,4.6-4.4,5.9l2.8,8h-6.2l-2.3-6.9l-2,0l-1.2,6.9h-6.2l3.9-21.8h8.7
				c2.3,0,4.1,0.8,5.5,2.3C278.1,204.1,278.6,206,278.2,208.3z M267.8,206.1l-0.7,4.1h2.6c0.6,0,1.1-0.1,1.5-0.5
				c0.4-0.4,0.7-0.9,0.8-1.5c0.1-0.6,0-1.1-0.3-1.5c-0.3-0.4-0.8-0.5-1.4-0.5H267.8z" />
			</g>
			<g>
				<path class="st1" d="M307.3,200.4l-3.9,21.8h-6.2l1.9-10.5l-6.1,8.1h-0.6l-3.6-8.4l-1.9,10.9h-6.2l3.9-21.8h6.4l3.3,8.9l6.8-8.9
				H307.3z" />
			</g>
			<g>
				<path class="st1" d="M320.4,222.7c-2.4,0-4.4-0.6-6.1-1.8c-1.7-1.2-2.9-2.7-3.5-4.4s-0.8-3.6-0.5-5.6c0.5-3,1.9-5.6,4.3-7.8
				c2.4-2.2,5.3-3.3,8.7-3.3c1.8,0,3.4,0.3,4.8,1c1.4,0.7,2.5,1.6,3.3,2.7c0.8,1.1,1.4,2.3,1.7,3.7c0.3,1.4,0.4,2.8,0.2,4.3
				c-0.5,3-1.9,5.7-4.2,7.9C326.7,221.6,323.8,222.7,320.4,222.7z M317.3,215.1c0.8,1,2,1.5,3.6,1.5c1.5,0,2.9-0.5,4.1-1.5
				c1.2-1,1.9-2.3,2.2-3.8c0.3-1.5,0-2.8-0.8-3.8c-0.8-1-2-1.5-3.6-1.5c-1.5,0-2.9,0.5-4.1,1.5c-1.2,1-1.9,2.3-2.2,3.8
				C316.2,212.8,316.4,214.1,317.3,215.1z" />
			</g>
			<g>
				<path class="st1"
					d="M336.2,222.2l3.9-21.8h5l5,10.5l1.8-10.5h6.2l-3.8,21.8h-5l-5-10.5l-1.9,10.5H336.2z" />
			</g>
			<g>
				<path class="st1" d="M363.8,200.4h6.2l-3.9,21.8h-6.2L363.8,200.4z" />
			</g>
			<g>
				<path class="st1" d="M391.2,208.3c-0.5,2.7-1.9,4.6-4.4,5.9l2.8,8h-6.2l-2.3-6.9l-2,0l-1.2,6.9h-6.2l3.9-21.8h8.7
				c2.3,0,4.1,0.8,5.5,2.3C391.2,204.1,391.7,206,391.2,208.3z M380.8,206.1l-0.7,4.1h2.6c0.6,0,1.1-0.1,1.5-0.5
				c0.4-0.4,0.7-0.9,0.8-1.5c0.1-0.6,0-1.1-0.3-1.5c-0.3-0.4-0.8-0.5-1.4-0.5H380.8z" />
			</g>
		</g>
		<g>
			<rect x="280.7" y="226" class="st0" width="110.7" height="3" />
		</g>
	</g>
</svg>